<svg xmlns="http://www.w3.org/2000/svg" width="595" height="96" viewBox="0 0 595 96">
  <g id="Group_137896" data-name="Group 137896" transform="translate(-986 -704)">
    <text id="We_are_Chennai_based_Tech-ians_Providing_a_New_Era_for_the_Digital_World._Delivering_tailored_tech_solutions_that_drive_innovation_and_exceed_expectations." data-name="We are Chennai     based Tech-ians, Providing a New Era 
for the Digital World. Delivering tailored tech solutions 
that drive innovation and exceed expectations." transform="translate(1581 725)" fill="gray" font-size="22" font-family="Inter-Regular, Inter"><tspan x="-594" y="0" xml:space="preserve">We are Chennai     based Tech-ians, Providing a New Era </tspan><tspan x="-564" y="35">for the Digital World. Delivering tailored tech solutions </tspan><tspan x="-485" y="70">that drive innovation and exceed expectations.</tspan></text>
    <g id="heart_7_" data-name="heart (7)" transform="translate(1152 702)">
      <path id="Path_184334" data-name="Path 184334" d="M25.816,15.47C24.171,20.153,18.9,24.889,13.8,26.952,8.7,24.889,3.429,20.154,1.784,15.47a11.093,11.093,0,0,1-.613-5.882,7.03,7.03,0,0,1,3.58-4.835A7.907,7.907,0,0,1,12.4,5.27a7.4,7.4,0,0,1,1.4,1.211A7.4,7.4,0,0,1,15.2,5.27a7.907,7.907,0,0,1,7.647-.518,7.031,7.031,0,0,1,3.58,4.835,11.093,11.093,0,0,1-.613,5.882Z" transform="translate(0)" fill="#d6253f"/>
      <g id="Group_137897" data-name="Group 137897" transform="translate(2.766 6.11)">
        <path id="Path_184335" data-name="Path 184335" d="M7.423,12.38A8.177,8.177,0,0,0,7.6,14.835a1.277,1.277,0,0,1-.919,1.5l-.027,0a1.272,1.272,0,0,1-1.581-1.03,5.887,5.887,0,0,1,.446-3.351A6.767,6.767,0,0,1,8.65,8.8a.157.157,0,0,1,.184.248,5.532,5.532,0,0,0-1.412,3.333Z" transform="translate(-5 -8.781)" fill="#f7525f"/>
        <circle id="Ellipse_8868" data-name="Ellipse 8868" cx="1.309" cy="1.309" r="1.309" transform="translate(1.724 8.628)" fill="#f7525f"/>
      </g>
    </g>
  </g>
</svg>
